<?xml version="1.0" encoding="UTF-8" standalone="no"?>
<!DOCTYPE svg PUBLIC "-//W3C//DTD SVG 1.1//EN" "http://www.w3.org/Graphics/SVG/1.1/DTD/svg11.dtd">
<svg width="100%" height="100%" viewBox="0 0 869 852" version="1.1" xmlns="http://www.w3.org/2000/svg" xmlns:xlink="http://www.w3.org/1999/xlink" xml:space="preserve" xmlns:serif="http://www.serif.com/" style="fill-rule:evenodd;clip-rule:evenodd;stroke-linejoin:round;stroke-miterlimit:2;">
    <g transform="matrix(1.29428,0,0,1.52839,-247.58,-384.578)">
        <g>
            <path d="M308.578,380.061L512.826,280.165L512.826,645.498C512.826,655.393 510.017,666.048 504.4,677.465C498.782,688.882 491.592,699.442 482.829,709.146C474.066,718.85 464.516,726.176 454.18,731.123L308.578,802.477C292.849,810.089 279.143,811.04 267.459,805.332C255.775,799.623 249.933,789.158 249.933,773.936L249.933,636.936L308.578,608.394L308.578,745.394L454.18,674.04L454.18,308.707C454.18,318.601 451.484,329.257 446.091,340.673C440.699,352.09 433.508,362.65 424.521,372.354C415.533,382.059 405.871,389.384 395.535,394.332L308.578,437.144L308.578,380.061ZM454.18,308.707L454.18,674.04L395.535,645.498L395.535,280.165L454.18,308.707ZM454.18,674.04L308.578,745.394L249.933,716.852L395.535,645.498L454.18,674.04ZM512.826,280.165L308.578,380.061L249.933,351.519L454.18,251.623L512.826,280.165ZM308.578,380.061L308.578,437.144L249.933,408.602L249.933,351.519L308.578,380.061ZM308.578,608.394L249.933,636.936L191.287,608.394L249.933,579.852L308.578,608.394ZM249.933,636.936L249.933,773.936C249.933,789.158 255.775,799.623 267.459,805.332L208.814,776.79C197.129,771.082 191.287,760.616 191.287,745.394L191.287,608.394L249.933,636.936Z" style="fill:rgb(255,124,0);fill-rule:nonzero;"/>
            <path d="M308.578,380.061L512.826,280.165L512.826,645.498C512.826,655.393 510.017,666.048 504.4,677.465C498.782,688.882 491.592,699.442 482.829,709.146C474.066,718.85 464.516,726.176 454.18,731.123L308.578,802.477C292.849,810.089 279.143,811.04 267.459,805.332C255.775,799.623 249.933,789.158 249.933,773.936L249.933,636.936L308.578,608.394L308.578,745.394L454.18,674.04L454.18,308.707C454.18,318.601 451.484,329.257 446.091,340.673C440.699,352.09 433.508,362.65 424.521,372.354C415.533,382.059 405.871,389.384 395.535,394.332L308.578,437.144L308.578,380.061ZM454.18,308.707L454.18,674.04L454.18,308.707ZM454.18,674.04L308.578,745.394L454.18,674.04ZM512.826,280.165L308.578,380.061L512.826,280.165ZM308.578,380.061L308.578,437.144L308.578,380.061ZM308.578,608.394L249.933,636.936L308.578,608.394ZM249.933,636.936L249.933,773.936C249.933,789.158 249.933,636.936 249.933,636.936Z" style="fill:rgb(255,214,0);fill-rule:nonzero;"/>
            <g transform="matrix(0.772629,0,0,0.654283,112.724,197.749)">
                <path d="M177.586,235.021L441.94,82.342L517.844,125.964L253.49,278.644L177.586,235.021" style="fill:rgb(255,247,225);"/>
            </g>
            <path d="M688.088,665.477C672.359,673.089 658.653,674.04 646.969,668.332C635.285,662.623 629.442,652.158 629.442,636.936L629.442,579.852C629.442,569.577 632.139,558.827 637.531,547.6C642.924,536.374 650.114,525.909 659.102,516.204C668.09,506.5 677.752,499.175 688.088,494.227L862.676,408.602L862.676,465.686L688.088,551.311L688.088,608.394L804.705,551.311C819.984,543.7 833.465,542.748 845.15,548.457C856.834,554.165 862.676,564.63 862.676,579.852L862.676,636.936C862.676,646.83 859.979,657.486 854.587,668.902C849.194,680.319 842.116,690.879 833.353,700.584C824.59,710.288 815.04,717.614 804.705,722.561L629.442,808.186L629.442,751.102L804.705,665.477L804.705,608.394L688.088,665.477ZM804.705,608.394L804.705,665.477L746.059,636.936L746.059,579.852L804.705,608.394ZM804.705,665.477L629.442,751.102L570.797,722.561L746.059,636.936L804.705,665.477ZM629.442,751.102L629.442,808.186L570.797,779.644L570.797,722.561L629.442,751.102ZM845.15,548.457C833.465,542.748 819.984,543.7 804.705,551.311L688.088,608.394L629.442,579.852L746.059,522.769C761.788,515.158 775.494,514.207 787.178,519.915L845.15,548.457ZM862.676,408.602L688.088,494.227C677.752,499.175 668.09,506.5 659.102,516.204C650.114,525.909 642.924,536.374 637.531,547.6C632.139,558.827 629.442,569.577 629.442,579.852L629.442,636.936C629.442,652.158 635.285,662.623 646.969,668.332L588.323,639.79C576.639,634.082 570.797,623.616 570.797,608.394L570.797,551.311C570.797,541.036 573.493,530.285 578.886,519.059C584.279,507.832 591.469,497.367 600.457,487.663C609.445,477.959 619.107,470.633 629.442,465.686L804.705,380.061L862.676,408.602Z" style="fill:rgb(255,124,0);fill-rule:nonzero;"/>
            <path d="M688.088,665.477C672.359,673.089 658.653,674.04 646.969,668.332C635.285,662.623 629.442,652.158 629.442,636.936L629.442,579.852C629.442,569.577 632.139,558.827 637.531,547.6C642.924,536.374 650.114,525.909 659.102,516.204C668.09,506.5 677.752,499.175 688.088,494.227L862.676,408.602L862.676,465.686L688.088,551.311L688.088,608.394L804.705,551.311C819.984,543.7 833.465,542.748 845.15,548.457C856.834,554.165 862.676,564.63 862.676,579.852L862.676,636.936C862.676,646.83 859.979,657.486 854.587,668.902C849.194,680.319 842.116,690.879 833.353,700.584C824.59,710.288 815.04,717.614 804.705,722.561L629.442,808.186L629.442,751.102L804.705,665.477L804.705,608.394L688.088,665.477ZM804.705,608.394L804.705,665.477L804.705,608.394ZM804.705,665.477L629.442,751.102L804.705,665.477ZM629.442,751.102L629.442,808.186L629.442,751.102ZM688.088,608.394C688.088,608.394 819.984,543.7 804.705,551.311L688.088,608.394ZM862.676,408.602L688.088,494.227C677.752,499.175 862.676,408.602 862.676,408.602Z" style="fill:rgb(255,214,0);fill-rule:nonzero;"/>
            <g transform="matrix(0.772629,0,0,0.654283,462.574,326.186)">
                <path d="M238.771,200.057L442.821,82.342L517.844,125.964L314.475,243.547C314.475,243.547 264.072,214.598 238.771,200.057" style="fill:url(#_Linear1);"/>
            </g>
        </g>
    </g>
    <defs>
        <linearGradient id="_Linear1" x1="0" y1="0" x2="1" y2="0" gradientUnits="userSpaceOnUse" gradientTransform="matrix(-332.476,202.233,-202.233,-332.476,472.547,109.752)"><stop offset="0" style="stop-color:rgb(255,247,225);stop-opacity:1"/><stop offset="0.25" style="stop-color:rgb(255,236,181);stop-opacity:0.71"/><stop offset="0.57" style="stop-color:rgb(255,210,80);stop-opacity:0.02"/><stop offset="1" style="stop-color:rgb(255,209,78);stop-opacity:0"/></linearGradient>
    </defs>
</svg>
